<svg width="17" height="18" viewBox="0 0 17 18" fill="none" xmlns="http://www.w3.org/2000/svg">
<path d="M8.45663 13.5692C6.0156 13.5692 4.09766 11.5384 4.09766 8.95382C4.09766 6.36921 6.0156 4.33844 8.45663 4.33844C10.8105 4.33844 12.8156 6.36921 12.8156 8.95382C12.8156 11.5384 10.8977 13.5692 8.45663 13.5692ZM8.45663 5.90767C6.8874 5.90767 5.57971 7.29229 5.57971 8.95382C5.57971 10.6154 6.8874 12 8.45663 12C10.0259 12 11.3336 10.6154 11.3336 8.95382C11.4207 7.29229 10.113 5.90767 8.45663 5.90767Z" fill="white"/>
<path d="M14.0357 4.15383C14.0357 4.79999 13.5998 5.26153 12.9895 5.26153C12.3793 5.26153 11.9434 4.79999 11.9434 4.15383C11.9434 3.50768 12.3793 3.04614 12.9895 3.04614C13.5998 3.04614 14.0357 3.50768 14.0357 4.15383Z" fill="white"/>
<path d="M12.1179 18H4.79487C2.17949 18 0 15.6923 0 12.8308V5.07692C0 2.30769 2.17949 0 4.79487 0H12.1179C14.8205 0 16.9128 2.30769 16.9128 5.07692V12.8308C17 15.6923 14.8205 18 12.1179 18ZM4.79487 1.56923C2.9641 1.56923 1.39487 3.13846 1.39487 5.16923V12.9231C1.39487 14.8615 2.87692 16.5231 4.79487 16.5231H12.1179C13.9487 16.5231 15.5179 14.9538 15.5179 12.9231V5.07692C15.5179 3.13846 14.0359 1.47692 12.1179 1.47692H4.79487V1.56923Z" fill="white"/>
</svg>
