<svg width="19" height="18" viewBox="0 0 19 18" fill="none" xmlns="http://www.w3.org/2000/svg">
<path d="M9.74438 0.206909C4.82333 0.206909 0.848633 4.1816 0.848633 9.10265C0.848633 14.0237 4.82333 17.9984 9.74438 17.9984C14.6654 17.9984 18.6401 14.0237 18.6401 9.10265C18.7348 4.1816 14.6654 0.206909 9.74438 0.206909ZM13.9083 13.0773C13.7191 13.3613 13.4352 13.4559 13.1513 13.2666C11.0693 11.9417 8.41948 11.6578 5.2965 12.4149C4.91796 12.5095 4.63406 12.3203 4.63406 11.9417C4.53942 11.6578 4.72869 11.3739 5.0126 11.2793C8.41948 10.5222 11.3532 10.8061 13.7191 12.3203C13.9083 12.5095 14.003 12.7934 13.9083 13.0773ZM14.9493 10.6168C14.7601 10.9007 14.2869 11.09 14.003 10.8061C11.6371 9.29192 7.9463 8.91338 5.10723 9.7651C4.72869 9.85974 4.35015 9.67047 4.25551 9.29192C4.16088 9.00802 4.35015 8.62947 4.72869 8.53484C7.9463 7.58848 12.0156 8.06166 14.7601 9.7651C15.044 9.85974 15.1386 10.3329 14.9493 10.6168ZM15.044 8.1563C12.2049 6.45286 7.37849 6.26359 4.63406 7.11531C4.25551 7.20994 3.78234 6.92603 3.6877 6.54749C3.59306 6.07431 3.78234 5.60114 4.25551 5.5065C7.37849 4.56014 12.6781 4.74942 15.9903 6.73676C16.3689 6.92603 16.5581 7.49385 16.2742 7.87239C15.9903 8.25093 15.4225 8.34557 15.044 8.1563Z" fill="white"/>
</svg>
