<svg width="20" height="17" viewBox="0 0 20 17" fill="none" xmlns="http://www.w3.org/2000/svg">
<path d="M20 2.0606C19.3103 2.36969 18.4236 2.67879 17.6355 2.78182C18.5222 2.26666 19.1133 1.44242 19.4089 0.412118C18.6207 0.92727 17.734 1.23636 16.8473 1.44242C16.0591 0.618179 15.0739 0.103027 13.8916 0.103027C11.6256 0.103027 9.75369 2.0606 9.75369 4.4303C9.75369 4.73939 9.75369 5.04848 9.85222 5.4606C6.40394 5.04848 3.44828 3.4 1.37931 0.824239C1.08374 1.44242 0.886699 2.16363 0.886699 2.98788C0.886699 4.4303 1.57635 5.76969 2.75862 6.59394C1.97044 6.49091 1.37931 6.28485 0.788177 5.97576C0.788177 5.97576 0.788177 5.97576 0.788177 6.07879C0.788177 8.13939 2.16749 9.89091 4.03941 10.303C3.74384 10.4061 3.34975 10.4061 2.95567 10.4061C2.6601 10.4061 2.46305 10.4061 2.16749 10.303C2.6601 12.0545 4.23645 13.2909 6.00985 13.2909C4.63054 14.4242 2.85714 15.1455 0.985222 15.1455C0.689655 15.1455 0.295567 15.1455 0 15.0424C1.7734 16.2788 3.94089 17 6.30542 17C13.8916 17 18.0296 10.4061 18.0296 4.73939C18.0296 4.53333 18.0296 4.32727 18.0296 4.22424C18.8177 3.60606 19.5074 2.88485 20 2.0606Z" fill="white"/>
</svg>
