<svg width="20" height="14" viewBox="0 0 20 14" fill="none" xmlns="http://www.w3.org/2000/svg">
<g clip-path="url(#clip0)">
<path d="M19.6209 2.17568C19.4313 1.32432 18.673 0.662162 17.8199 0.378378C16.3033 0 10.0474 0 10.0474 0C10.0474 0 3.79147 0 2.18009 0.378378C1.32701 0.567568 0.663507 1.32432 0.379147 2.17568C0 3.78378 0 7 0 7C0 7 0 10.2162 0.379147 11.8243C0.56872 12.6757 1.32701 13.3378 2.18009 13.6216C3.69668 14 10.0474 14 10.0474 14C10.0474 14 16.3033 14 17.9147 13.6216C18.7678 13.4324 19.4313 12.6757 19.7156 11.8243C20.0948 10.3108 20.0948 7 20.0948 7C20.0948 7 20 3.78378 19.6209 2.17568ZM8.05687 10.027V3.97297L13.2701 7L8.05687 10.027Z" fill="white"/>
</g>
<defs>
<clipPath id="clip0">
<rect width="20" height="14" fill="white"/>
</clipPath>
</defs>
</svg>
