<svg width="208" height="39" viewBox="0 0 208 39" fill="none" xmlns="http://www.w3.org/2000/svg">
<path d="M115.954 29.0149C115.954 28.8948 116.074 28.8148 116.316 28.7948C116.557 28.7748 116.839 28.7748 117.121 28.7748C117.423 28.7748 117.704 28.7547 118.006 28.7347C118.308 28.6947 118.489 28.6147 118.59 28.4346C118.65 28.3345 118.711 28.1744 118.791 27.9143C118.851 27.6742 118.892 27.5141 118.892 27.4541V21.5911C118.892 20.9708 118.892 20.2704 118.912 19.51C118.932 18.7496 118.932 17.9692 118.932 17.1688C118.932 16.3684 118.912 15.588 118.851 14.8076C118.811 14.0272 118.711 13.2868 118.59 12.6065C118.288 12.2063 117.825 11.9661 117.181 11.8661C116.537 11.766 116.034 11.686 115.632 11.626V8.10416H131.167C132.093 8.10416 132.938 8.24423 133.723 8.52437C134.508 8.80452 135.192 9.18471 135.796 9.70498C136.379 10.2052 136.842 10.8256 137.164 11.5459C137.486 12.2663 137.647 13.0867 137.647 13.9872C137.647 15.3279 137.305 16.4484 136.621 17.3289C135.937 18.2293 134.971 18.9097 133.723 19.3499C135.353 19.9102 136.641 20.6706 137.546 21.6711C138.472 22.6716 138.915 24.0323 138.915 25.7932C138.915 26.7737 138.734 27.6342 138.392 28.3746C138.05 29.1149 137.567 29.7553 136.963 30.2755C136.359 30.7958 135.635 31.196 134.81 31.4761C133.964 31.7563 133.079 31.9164 132.133 31.9364L115.913 32.2365V29.0149H115.954ZM125.975 17.7691C125.975 17.8291 126.056 17.9092 126.237 17.9692C126.418 18.0292 126.559 18.0693 126.659 18.0693C127.927 18.0693 128.893 17.8091 129.537 17.3089C130.181 16.8086 130.503 15.8881 130.503 14.5475C130.503 13.8871 130.362 13.3869 130.101 13.0067C129.839 12.6265 129.497 12.3463 129.074 12.1462C128.652 11.9461 128.169 11.8261 127.625 11.786C127.082 11.746 126.539 11.706 125.975 11.706V17.7691ZM126.458 28.7147C127.183 28.6747 127.827 28.6347 128.39 28.5346C128.954 28.4546 129.457 28.2945 129.859 28.0744C130.262 27.8543 130.584 27.5141 130.825 27.0739C131.046 26.6337 131.167 26.0133 131.167 25.1929C131.167 23.9323 130.885 22.9518 130.322 22.2914C129.759 21.6311 128.873 21.2909 127.625 21.2909H126.639C126.639 21.451 126.599 21.7311 126.539 22.1314C126.478 22.5316 126.398 22.7917 126.337 22.9718C126.297 23.0318 126.257 23.0918 126.197 23.1119C126.096 23.2119 126.015 23.2519 125.955 23.2519L126.438 23.5521V28.7147H126.458Z" fill="black"/>
<path d="M147.689 33.6773L147.266 33.2571H143.584L142.799 36.4987L142.577 36.7188H141.933H140.947C140.766 36.6988 140.525 36.6788 140.223 36.6388C139.921 36.6188 139.659 36.5988 139.398 36.5588C139.096 36.5387 138.754 36.5187 138.412 36.4787L138.13 36.2586L143.523 18.2093C143.704 18.0893 143.865 17.8892 143.986 17.609C144.107 17.3289 144.187 17.1288 144.228 17.0087H145.636C146.28 17.0087 146.824 17.0287 147.266 17.0487C147.709 17.0688 148.252 17.1488 148.896 17.2889C148.916 17.3689 148.957 17.489 148.977 17.6491C149.017 17.8291 149.057 18.0092 149.098 18.1893C149.138 18.3694 149.178 18.5495 149.218 18.7296C149.259 18.9097 149.279 19.0298 149.299 19.0898C149.299 19.1298 149.339 19.1898 149.399 19.2299C149.48 19.2699 149.52 19.3099 149.581 19.3099C149.601 19.45 149.641 19.6901 149.701 20.0103C149.762 20.3304 149.822 20.6906 149.903 21.0708C149.983 21.451 150.043 21.7912 150.124 22.1314C150.204 22.4515 150.245 22.6916 150.305 22.8317V23.2519H149.802C149.842 23.392 149.903 23.5321 149.983 23.6521C150.063 23.7722 150.164 23.8722 150.305 23.9523L153.203 37.1791H148.252L147.689 33.6773ZM139.559 34.9579C139.559 35.138 139.619 35.2981 139.74 35.4182C139.861 35.5382 139.981 35.5983 140.122 35.5983H140.263L139.559 34.8979V34.9579ZM144.026 31.8563C143.624 31.9964 143.282 32.2165 142.98 32.5167C142.678 32.8168 142.316 32.9969 141.893 33.057H142.255C142.618 33.057 142.94 32.9169 143.242 32.6568C143.543 32.3766 143.805 32.1165 144.026 31.8563ZM143.242 28.3345C143.242 28.3746 143.242 28.4546 143.242 28.5546C143.242 28.6547 143.262 28.7748 143.302 28.8748C143.342 28.9749 143.382 29.0749 143.423 29.175C143.463 29.275 143.543 29.315 143.664 29.315H143.745C143.704 28.8548 143.785 28.3946 143.986 27.9543C144.207 27.5141 144.509 27.194 144.932 26.9938L143.302 27.9143C143.282 27.9944 143.262 28.0344 143.262 28.0944C143.262 28.1544 143.242 28.2545 143.242 28.3345ZM147.065 29.1149C147.065 28.6547 147.025 28.1945 146.924 27.7743C146.824 27.354 146.783 26.9338 146.783 26.5136C146.783 26.3935 146.783 26.3135 146.783 26.2535C146.783 26.1934 146.884 26.1334 147.065 26.0934C146.884 26.0534 146.763 25.9333 146.743 25.7332C146.723 25.5331 146.703 25.373 146.703 25.253C146.703 25.1529 146.723 25.0929 146.743 25.0328C146.743 24.9928 146.763 24.9328 146.783 24.8928L148.192 24.4726C148.071 24.1524 148.111 23.8522 148.313 23.5921C148.514 23.332 148.776 23.2119 149.118 23.2119V22.7917C148.896 22.7917 148.695 22.8717 148.454 23.0518C148.232 23.2319 148.011 23.412 147.79 23.6321C147.568 23.8522 147.347 24.0523 147.125 24.2725C146.904 24.4926 146.663 24.6326 146.441 24.6927V23.292H146.079L144.872 29.1349H147.065V29.1149Z" fill="black"/>
<path d="M154.45 38.0195C154.45 36.1986 154.41 34.2976 154.31 32.3366C154.209 30.3756 154.169 28.2545 154.169 26.0133C154.169 25.5931 154.169 24.9128 154.189 23.9923C154.209 23.0718 154.229 22.0313 154.229 20.8907C154.249 19.7501 154.269 18.5495 154.269 17.2689C154.289 16.0082 154.31 14.7876 154.31 13.647C154.33 12.5064 154.35 11.4859 154.35 10.5654C154.37 9.64496 154.39 8.96461 154.43 8.50437C154.732 8.44434 155.074 8.3643 155.497 8.26425C155.899 8.1642 156.302 8.12418 156.704 8.12418V8.40432L158.475 8.50437C158.475 8.66445 158.495 8.80452 158.515 8.92459C158.556 9.04465 158.596 9.1447 158.636 9.24475C158.676 9.3448 158.737 9.46486 158.777 9.60494C158.817 9.74501 158.858 9.94511 158.858 10.1652H159.26C159.26 10.2253 159.3 10.4053 159.361 10.6855C159.421 10.9656 159.502 11.2658 159.602 11.606C159.703 11.9461 159.803 12.2663 159.904 12.5264C160.005 12.8066 160.085 12.9667 160.146 12.9867L159.844 13.2868L160.528 12.9867C160.468 13.0467 160.387 13.1468 160.286 13.2868C160.186 13.4269 160.146 13.5069 160.146 13.587C160.146 13.7471 160.166 13.8471 160.186 13.8871C160.226 13.9272 160.266 13.9272 160.307 13.9272C160.347 13.9272 160.407 13.9472 160.447 14.0072C160.488 14.0672 160.528 14.1473 160.528 14.2673L161.111 13.9672C161.051 14.0272 160.971 14.2273 160.91 14.5275C160.85 14.8276 160.81 15.0677 160.81 15.2278C160.81 15.4279 160.93 15.588 161.152 15.6881C161.373 15.8081 161.635 15.9282 161.896 16.0482C162.158 16.1883 162.399 16.3284 162.641 16.4885C162.862 16.6485 162.983 16.8887 162.983 17.1688C162.983 17.3889 162.963 17.569 162.943 17.7091C162.902 17.8492 162.882 17.9692 162.842 18.0693C162.802 18.1893 162.782 18.3094 162.741 18.4695C162.701 18.6096 162.701 18.8097 162.701 19.0298C162.701 19.1898 162.782 19.55 162.943 20.1103C163.104 20.6706 163.285 21.2509 163.506 21.8712C163.728 22.4915 163.929 23.0718 164.15 23.6321C164.372 24.1924 164.533 24.5526 164.673 24.7127L165.257 24.4125V24.7127L165.559 24.0323V9.18472C165.559 8.82454 165.7 8.5644 166.002 8.42433C166.303 8.28426 166.565 8.20422 166.847 8.20422C166.947 8.20422 167.169 8.22423 167.531 8.24424C167.893 8.28426 168.276 8.34429 168.658 8.42433C169.06 8.50437 169.402 8.60442 169.724 8.74449C170.026 8.88457 170.187 9.02464 170.187 9.18472C170.187 9.58493 169.926 9.76502 169.402 9.76502H170.389C170.288 9.96512 170.147 10.1052 169.946 10.2052C169.745 10.3053 169.563 10.3853 169.402 10.4454H170.389L170.087 11.0257V17.0888C169.885 17.1888 169.724 17.2889 169.604 17.4089C169.463 17.529 169.402 17.6691 169.402 17.8692C169.402 18.0293 169.423 18.1293 169.483 18.1693C169.523 18.2093 169.604 18.2694 169.704 18.3694L169.402 18.6696H170.087V19.3499L170.67 18.9497L170.087 19.9302V23.7322L170.389 24.0323C170.187 24.0924 170.087 24.2324 170.046 24.4325C170.006 24.6326 170.006 24.8528 170.006 25.1129C170.006 25.273 170.026 25.413 170.087 25.5331C170.127 25.6532 170.248 25.7132 170.409 25.7132C170.248 25.7132 170.147 25.7732 170.087 25.8933C170.046 26.0133 170.006 26.1534 170.006 26.3135C170.006 26.5736 170.026 26.7337 170.046 26.7937C170.046 26.8938 170.067 26.9538 170.087 26.9939C170.046 27.0539 170.046 27.1339 170.046 27.194C170.006 27.254 170.006 27.3941 170.006 27.5942C170.006 28.0544 170.127 28.2745 170.409 28.2745L170.107 28.5747C170.167 28.5747 170.228 28.6147 170.308 28.6747C170.368 28.7347 170.409 28.8148 170.409 28.8748C170.409 28.9148 170.389 28.9549 170.368 29.0149C170.328 29.0749 170.308 29.155 170.268 29.215C170.207 29.315 170.147 29.3951 170.127 29.4551C170.127 29.5151 170.167 29.5952 170.228 29.6952C170.288 29.7953 170.348 29.8353 170.429 29.8353L170.127 30.1355V33.9374L170.429 34.2376L170.127 34.5377C170.187 34.5377 170.248 34.5777 170.328 34.6778C170.389 34.7778 170.429 34.8579 170.429 34.9179C170.268 35.018 170.167 35.178 170.167 35.3982C170.147 35.6183 170.147 35.7984 170.147 35.8784C170.147 36.1385 170.167 36.3186 170.187 36.3987C170.228 36.4787 170.248 36.5387 170.288 36.5788C170.328 36.6188 170.348 36.6388 170.389 36.6588C170.429 36.6788 170.429 36.7188 170.429 36.7789C170.429 36.8389 170.389 36.959 170.288 37.119C170.187 37.2791 170.147 37.3992 170.147 37.4592C170.187 37.5192 170.207 37.5793 170.248 37.5993C170.288 37.6993 170.348 37.7394 170.449 37.7394L170.147 38.0395L170.449 38.3397L169.765 39.02H165.74L161.816 27.8743C161.554 27.7743 161.413 27.6142 161.373 27.3941C161.333 27.1739 161.333 26.9338 161.333 26.6937C161.333 26.4536 161.293 26.2335 161.232 26.0334C161.172 25.8333 160.971 25.7332 160.649 25.7332L160.95 25.333L159.381 21.2309H158.978C158.978 21.6311 158.878 21.9913 158.676 22.3515C158.475 22.7117 158.375 23.0919 158.375 23.472C158.375 23.5321 158.415 23.6121 158.475 23.6721C158.536 23.7322 158.596 23.7722 158.676 23.7722L158.375 24.0724L158.676 24.4726V28.2745L157.69 29.8353C157.69 29.8953 157.731 29.9754 157.811 30.0354C157.892 30.0954 157.992 30.1355 158.073 30.1355C158.133 30.1355 158.234 30.0954 158.375 30.0354C158.495 29.9754 158.596 29.9153 158.676 29.8353C158.576 30.0354 158.455 30.3156 158.314 30.7158C158.173 31.116 158.093 31.3961 158.093 31.5962C158.093 31.6562 158.194 31.7763 158.395 31.9564C158.596 32.1365 158.697 32.2766 158.697 32.3766C158.636 32.4366 158.576 32.5167 158.556 32.6167C158.455 32.7768 158.415 32.8969 158.415 32.9569C158.415 33.2571 158.415 33.4772 158.415 33.6172C158.415 33.7573 158.515 33.8774 158.717 33.9374C158.616 33.9374 158.536 34.0375 158.455 34.2376C158.375 34.4377 158.314 34.6578 158.254 34.9179C158.214 35.178 158.173 35.4582 158.153 35.7583C158.133 36.0585 158.133 36.2986 158.133 36.4987L158.717 36.1986C158.616 36.2586 158.495 36.4587 158.355 36.7589C158.214 37.059 158.133 37.2991 158.133 37.4592C158.133 37.5192 158.214 37.6393 158.355 37.7994C158.495 37.9595 158.616 38.0395 158.717 38.0395C158.556 38.1996 158.415 38.3597 158.294 38.5198C158.173 38.6798 158.113 38.8399 158.113 39H154.752L154.45 38.0195ZM168.517 18.6696C168.316 18.8297 168.215 18.9497 168.175 19.0098C168.135 19.0698 168.135 19.1898 168.135 19.3499L168.517 18.6696Z" fill="black"/>
<path d="M172.341 13.5469H180.511C181.437 13.5469 182.201 13.747 182.825 14.1272C183.449 14.5274 183.952 15.0477 184.354 15.688C184.757 16.3484 185.059 17.0888 185.24 17.9092C185.441 18.7496 185.582 19.59 185.663 20.4505C185.743 21.3109 185.803 22.1514 185.803 22.9918C185.824 23.8322 185.824 24.5526 185.824 25.1929C185.824 25.353 185.824 25.5931 185.803 25.9533C185.783 26.3135 185.783 26.6937 185.783 27.0939C185.783 27.4941 185.783 27.8743 185.763 28.2345C185.743 28.5947 185.743 28.8348 185.743 28.9949C185.622 29.9353 185.461 30.7758 185.28 31.5362C185.099 32.2966 184.817 32.9569 184.455 33.5572C184.093 34.1575 183.61 34.6378 183.006 35.058C182.402 35.4582 181.638 35.7583 180.692 35.9584L180.471 36.1786H172.3V13.5469H172.341ZM177.15 31.9164C177.15 32.0164 177.19 32.0965 177.251 32.1165C177.331 32.1565 177.412 32.1765 177.512 32.1965C177.613 32.2165 177.693 32.2165 177.794 32.2165C177.875 32.2165 177.935 32.2165 177.955 32.2165C178.539 32.2165 179.002 32.1365 179.364 31.9564C179.726 31.7763 180.008 31.5362 180.229 31.196C180.45 30.8758 180.611 30.4756 180.712 29.9954C180.813 29.5351 180.893 29.0149 180.974 28.4346L181.276 28.2145V21.491C181.014 21.411 180.853 21.2709 180.793 21.0508C180.732 20.8307 180.692 20.5906 180.692 20.3104C180.692 20.0303 180.672 19.7301 180.652 19.43C180.632 19.1098 180.511 18.8296 180.289 18.5695C180.068 18.3094 179.726 18.1093 179.243 17.9492C178.76 17.7891 178.076 17.7091 177.19 17.7091V31.9164H177.15Z" fill="black"/>
<path d="M200.152 25.273H200.454H200.755C200.776 25.273 200.876 25.293 201.037 25.333C201.198 25.373 201.359 25.413 201.54 25.4531C201.721 25.4931 201.882 25.5131 202.023 25.5531C202.164 25.5731 202.265 25.5931 202.325 25.5931C202.929 25.5931 203.392 25.4331 203.754 25.1129C204.096 24.7927 204.277 24.3325 204.277 23.7322C204.277 23.7122 204.277 23.6521 204.257 23.5921C204.237 23.5121 204.237 23.452 204.237 23.372C204.217 23.2719 204.197 23.1719 204.197 23.0718L200.454 18.7696C200.333 18.3094 200.152 17.8892 199.91 17.569C199.669 17.2288 199.427 16.8887 199.206 16.5285C198.964 16.1683 198.763 15.7481 198.562 15.2879C198.381 14.8276 198.28 14.2273 198.28 13.5069C198.28 12.7465 198.421 12.0462 198.683 11.4259C198.964 10.8056 199.327 10.2853 199.81 9.84506C200.272 9.40484 200.836 9.08467 201.48 8.86456C202.124 8.64445 202.788 8.52438 203.512 8.52438C203.955 8.52438 204.438 8.54439 204.941 8.5644C205.444 8.58441 205.907 8.68447 206.37 8.82454C206.511 9.42485 206.611 9.90509 206.632 10.2853C206.652 10.6655 206.672 11.1257 206.672 11.646V12.6065C206.33 12.4664 205.887 12.3063 205.364 12.1663C204.841 12.0262 204.337 11.9461 203.834 11.9461C203.311 11.9461 202.848 12.1062 202.466 12.4264C202.084 12.7465 201.902 13.2068 201.963 13.8071C201.963 13.9071 201.983 14.0272 202.043 14.1873C202.084 14.3474 202.164 14.5075 202.224 14.6675C202.305 14.8276 202.365 14.9677 202.446 15.1078C202.526 15.2478 202.587 15.3279 202.627 15.3479L207.638 21.2909C207.738 21.411 207.819 21.5911 207.879 21.8512C207.94 22.0913 207.98 22.3515 208 22.6116C208.02 22.8717 208.02 23.1319 208.02 23.372C208.02 23.6121 208.02 23.7922 208.02 23.8923C208.02 24.5526 207.98 25.0929 207.919 25.4931C207.859 25.8933 207.738 26.2335 207.537 26.5336C207.356 26.8338 207.094 27.1339 206.772 27.4541C206.45 27.7743 206.008 28.1945 205.464 28.7147C205.424 28.7147 205.303 28.7548 205.142 28.8348C204.981 28.9148 204.861 28.9549 204.78 28.9549H200.454L200.152 25.273Z" fill="black"/>
<path d="M193.491 9.72498H195.885L200.675 33.6372H195.825L195.161 29.9554L189.325 29.1349H189.305H189.285L189.265 29.1549L187.091 33.6172H186.306H185.059C184.837 33.6172 184.576 33.6172 184.234 33.6172C183.912 33.6172 183.61 33.6172 183.308 33.5972C183.006 33.5972 182.745 33.5772 182.523 33.5772H182.181L181.98 33.5372L193.491 9.72498ZM193.893 25.5931H194.437L193.531 19.2899L193.491 19.2299L191.036 25.273L193.893 25.5931Z" fill="black"/>
<path d="M111.989 20.9107C111.969 20.9708 111.909 21.0508 111.808 21.1709C111.728 21.2909 111.627 21.411 111.546 21.551C111.466 21.6911 111.365 21.8112 111.285 21.9112C111.204 22.0313 111.144 22.1113 111.104 22.1514C111.063 22.2314 111.023 22.2914 110.983 22.3314C110.943 22.3915 110.882 22.4115 110.802 22.4115C110.681 22.4115 110.54 22.3715 110.44 22.2914C110.319 22.2114 110.218 22.1313 110.098 22.0313C109.997 21.9312 109.876 21.8312 109.755 21.7712C109.635 21.6911 109.494 21.6511 109.333 21.6511H108.991C108.971 21.7311 108.93 21.7912 108.91 21.8712C108.89 21.9513 108.87 22.0313 108.87 22.1113C108.87 22.2714 108.95 22.4115 109.091 22.5316C109.232 22.6516 109.413 22.7717 109.655 22.8717C109.876 22.9918 110.118 23.1118 110.379 23.2519C110.641 23.392 110.882 23.5521 111.104 23.7722C111.325 23.9723 111.506 24.2324 111.667 24.5326C111.808 24.8327 111.889 25.1929 111.889 25.6331C111.889 26.0333 111.808 26.3935 111.667 26.6937C111.526 26.9938 111.325 27.274 111.084 27.4741C110.842 27.6942 110.54 27.8543 110.218 27.9543C109.876 28.0544 109.534 28.1144 109.152 28.1144C108.991 28.1144 108.749 28.0944 108.427 28.0344C108.105 27.9743 107.783 27.8943 107.481 27.7742C107.159 27.6542 106.878 27.5141 106.636 27.354C106.395 27.1939 106.274 26.9938 106.274 26.7737C106.274 26.7337 106.294 26.6737 106.314 26.6136C106.334 26.5536 106.375 26.5136 106.395 26.4536C106.475 26.3735 106.556 26.2535 106.656 26.1334C106.757 26.0133 106.878 25.8733 106.978 25.7732C107.079 25.6532 107.18 25.5531 107.24 25.4731C107.32 25.393 107.361 25.353 107.361 25.353H107.481L108.749 26.1334H108.87C109.313 26.1334 109.514 25.9533 109.514 25.5731C109.514 25.373 109.433 25.2129 109.293 25.0729C109.152 24.9528 108.971 24.8127 108.749 24.6927C108.528 24.5726 108.307 24.4325 108.045 24.3125C107.803 24.1724 107.562 24.0123 107.341 23.8322C107.119 23.6521 106.938 23.432 106.797 23.1719C106.656 22.9117 106.576 22.5916 106.576 22.2114C106.576 21.491 106.777 20.8907 107.18 20.4105C107.582 19.9302 108.186 19.6901 109.011 19.6901C109.132 19.6901 109.353 19.7101 109.655 19.7501C109.977 19.7901 110.299 19.8702 110.641 19.9502C110.983 20.0503 111.265 20.1703 111.526 20.3104C111.788 20.4705 111.909 20.6306 111.909 20.8307V20.9107H111.989Z" fill="black"/>
<path d="M103.457 25.2129C103.356 25.2129 103.215 25.2329 103.074 25.2529C102.933 25.273 102.793 25.333 102.652 25.393C102.511 25.453 102.39 25.5331 102.269 25.6131C102.149 25.6932 102.068 25.7932 102.028 25.9133H100.74C100.599 25.9133 100.498 25.8733 100.418 25.7732C100.337 25.6732 100.257 25.5531 100.217 25.413C100.176 25.273 100.136 25.1329 100.116 24.9928C100.096 24.8527 100.096 24.7327 100.096 24.6326C100.096 24.2324 100.217 23.8722 100.478 23.5721C100.74 23.2719 101.042 23.0318 101.404 22.8117C101.766 22.5916 102.169 22.4115 102.571 22.2714C102.974 22.1313 103.336 22.0113 103.658 21.8912C103.718 21.6711 103.759 21.491 103.779 21.3509C103.799 21.2109 103.799 21.0308 103.799 20.8107C103.799 20.4105 103.698 20.1303 103.517 19.9702C103.336 19.8102 103.054 19.7301 102.672 19.7301C102.37 19.7301 102.128 19.7701 101.988 19.8502C101.847 19.9302 101.726 20.0103 101.666 20.1303C101.605 20.2304 101.565 20.3504 101.545 20.4905C101.525 20.6306 101.505 20.7506 101.485 20.8507C101.444 20.9507 101.384 21.0508 101.303 21.1308C101.223 21.2109 101.082 21.2509 100.881 21.2509C100.659 21.2509 100.498 21.2309 100.438 21.2109C100.378 21.1708 100.337 21.0508 100.337 20.8307C100.337 20.5305 100.438 20.2704 100.619 20.0503C100.82 19.8302 101.042 19.6701 101.324 19.53C101.605 19.3899 101.887 19.3099 102.189 19.2499C102.491 19.1898 102.772 19.1498 102.994 19.1498C103.255 19.1498 103.497 19.1698 103.738 19.1898C103.98 19.2299 104.201 19.2899 104.382 19.3899C104.563 19.49 104.724 19.6501 104.845 19.8302C104.966 20.0303 105.026 20.2704 105.026 20.5705C105.026 21.2309 104.986 21.8712 104.906 22.4915C104.825 23.1118 104.785 23.7522 104.785 24.3925V25.0729C104.785 25.0929 104.805 25.1129 104.825 25.1529C104.845 25.1929 104.885 25.1929 104.926 25.1929C104.946 25.2129 105.006 25.2129 105.067 25.2129C105.147 25.2129 105.228 25.2329 105.308 25.2329C105.389 25.2329 105.489 25.2529 105.57 25.2529C105.65 25.2529 105.711 25.2529 105.751 25.2529C105.751 25.6131 105.67 25.8733 105.529 26.0333C105.389 26.2134 105.147 26.2935 104.785 26.2935C104.402 26.2935 104.121 26.1934 103.92 26.0133C103.738 25.8332 103.598 25.5531 103.497 25.1729H103.457V25.2129ZM101.464 24.4525C101.464 24.6526 101.505 24.8127 101.565 24.9128C101.646 25.0128 101.807 25.0729 102.048 25.0729C102.43 25.0729 102.712 25.0128 102.913 24.8928C103.115 24.7727 103.276 24.6126 103.376 24.3925C103.477 24.1724 103.517 23.9323 103.537 23.6321C103.557 23.352 103.557 23.0318 103.557 22.7116C103.296 22.7116 103.054 22.7517 102.793 22.8317C102.531 22.9117 102.31 23.0318 102.108 23.1719C101.907 23.312 101.746 23.492 101.625 23.7122C101.525 23.9523 101.464 24.1924 101.464 24.4525Z" fill="black"/>
<path d="M95.7895 28.1744C95.7895 28.2345 95.8096 28.2745 95.8498 28.2945C95.87 28.2345 95.8498 28.1945 95.7895 28.1744ZM98.1641 25.5731C98.1641 25.5331 98.1641 25.5131 98.1641 25.4931C98.1641 25.433 98.1641 25.393 98.1238 25.373H98.0232C97.983 25.373 97.9628 25.393 97.9628 25.413C97.983 25.413 97.983 25.433 98.0031 25.453C98.0232 25.4731 98.0433 25.4931 98.0433 25.5131C98.0433 25.5331 98.0635 25.5531 98.0635 25.5731C98.0635 25.5931 98.0433 25.6131 98.0232 25.6131C98.0232 25.5931 98.0232 25.5931 98.0031 25.5931C98.0031 25.5931 97.983 25.5931 97.983 25.6131C98.0031 25.6131 98.0031 25.6331 98.0232 25.6331H98.0433H98.0635C98.0836 25.6532 98.1037 25.6532 98.1238 25.6532H98.144L98.1641 25.5731ZM98.1238 25.6932C98.1238 25.7132 98.1238 25.7132 98.1238 25.7332C98.1238 25.7532 98.1037 25.7732 98.0836 25.7932H98.0635H98.0433C98.0232 25.7932 98.0232 25.7932 98.0232 25.7932C98.0031 25.7932 97.983 25.8132 97.983 25.8332H98.0635C98.0836 25.8332 98.1037 25.8533 98.1037 25.8733C98.1238 25.9133 98.1238 25.9533 98.1238 25.9933V26.0133C98.1238 26.0333 98.1238 26.0534 98.1037 26.0734V26.0934V26.1134C98.1037 26.1334 98.1037 26.1534 98.1037 26.1534C98.144 26.1534 98.1842 26.1734 98.1641 26.1934V26.2134C98.1641 26.2134 98.1641 26.2335 98.144 26.2335V26.2535V26.2735C98.144 26.2935 98.1238 26.3135 98.1238 26.3135C98.1238 26.3135 98.1238 26.3135 98.144 26.3335C98.1641 26.3535 98.1641 26.3535 98.1641 26.3535V26.3735V26.3935V26.4135C98.1641 26.4336 98.1641 26.4536 98.1641 26.4536C98.1641 26.4736 98.1842 26.4936 98.2245 26.5136C98.2245 26.4936 98.2245 26.4536 98.2446 26.4336C98.2446 26.3935 98.2446 26.3335 98.2446 26.2735C98.2446 26.2335 98.2446 26.2134 98.2245 26.1734C98.2245 26.1534 98.2245 26.1534 98.2245 26.1334V26.1134C98.2245 26.0934 98.2245 26.0534 98.2043 25.9933V25.9533V25.9333C98.2043 25.9133 98.2043 25.8933 98.2043 25.8733V25.7932V25.7732V25.7332C98.2043 25.6932 98.1842 25.6732 98.144 25.6532C98.144 25.6932 98.1238 25.6932 98.1238 25.6932ZM97.9628 28.1344L97.9427 28.1744L97.9226 28.2145C97.9025 28.2345 97.9025 28.2745 97.8823 28.2945V28.3145C97.8823 28.3545 97.9025 28.3946 97.9427 28.4146C97.9427 28.3946 97.9427 28.3745 97.9427 28.3545C97.9427 28.3345 97.9427 28.3345 97.9427 28.3145C97.9427 28.2945 97.9427 28.2945 97.9628 28.2745L97.983 28.2545V28.2345C98.0031 28.2145 98.0031 28.1945 98.0031 28.1744C98.0031 28.1744 97.983 28.1544 97.9628 28.1344ZM98.0031 27.7942V27.8343C98.0031 27.8543 98.0031 27.8543 98.0031 27.8743C98.0031 27.8943 98.0232 27.9143 98.0232 27.9143C98.0232 27.8943 98.0433 27.8743 98.0635 27.8743C98.0635 27.8543 98.0635 27.8343 98.0433 27.8143C98.0433 27.7943 98.0232 27.7942 98.0031 27.7942C98.0232 27.7942 98.0232 27.7942 98.0031 27.7942ZM95.0248 21.471C95.0248 21.491 95.0248 21.511 95.0248 21.531V21.471ZM95.7492 19.6901C95.7492 19.7501 95.7693 19.7901 95.8297 19.8102C95.8297 19.7501 95.8096 19.7101 95.7492 19.6901ZM96.2523 19.8902V19.9102H96.2724C96.2523 19.9102 96.2523 19.9102 96.2523 19.8902ZM96.1919 20.2704C96.1919 20.2704 96.1919 20.2904 96.1919 20.3104C96.2322 20.3104 96.2724 20.2904 96.2926 20.2504C96.2724 20.2504 96.2322 20.2704 96.1919 20.2704ZM96.2724 19.9902L96.2523 20.0103C96.2724 20.0103 96.2724 20.0103 96.2926 20.0103C96.2724 20.0103 96.2724 19.9902 96.2724 19.9902ZM96.3127 20.1303C96.2926 20.1303 96.2926 20.1303 96.3127 20.1303V20.1503C96.3127 20.1503 96.3127 20.1503 96.3127 20.1303ZM97.0573 20.3905C97.0774 20.3905 97.0774 20.3905 97.0975 20.3905H97.0573ZM97.1981 20.3905L97.2384 20.4105C97.2183 20.3905 97.2183 20.3905 97.1981 20.3905ZM95.0851 23.312C95.0851 23.332 95.0851 23.332 95.065 23.352L95.0449 23.372L95.0248 23.392V23.412C95.0046 23.432 95.0046 23.432 95.0046 23.452C95.0046 23.472 95.0247 23.472 95.0449 23.492V23.472C95.0449 23.452 95.0449 23.452 95.065 23.432C95.065 23.432 95.0851 23.432 95.0851 23.412L95.1052 23.392H95.1254C95.1455 23.392 95.1656 23.372 95.1656 23.372C95.1254 23.332 95.1052 23.332 95.0851 23.312ZM94.9443 23.472C94.9443 23.5121 94.9443 23.5521 94.9443 23.5921V23.6121V23.472ZM95.0851 23.312C95.0851 23.332 95.0851 23.332 95.065 23.352L95.0449 23.372L95.0248 23.392V23.412C95.0046 23.432 95.0046 23.432 95.0046 23.452C95.0046 23.472 95.0247 23.472 95.0449 23.492V23.472C95.0449 23.452 95.0449 23.452 95.065 23.432C95.065 23.432 95.0851 23.432 95.0851 23.412L95.1052 23.392H95.1254C95.1455 23.392 95.1656 23.372 95.1656 23.372C95.1254 23.332 95.1052 23.332 95.0851 23.312ZM95.7492 19.6901C95.7492 19.7501 95.7693 19.7901 95.8297 19.8102C95.8297 19.7501 95.8096 19.7101 95.7492 19.6901ZM96.1919 20.2704C96.1919 20.2704 96.1919 20.2904 96.1919 20.3104C96.2322 20.3104 96.2724 20.2904 96.2926 20.2504C96.2724 20.2504 96.2322 20.2704 96.1919 20.2704ZM96.2523 19.8902V19.9102H96.2724C96.2523 19.9102 96.2523 19.9102 96.2523 19.8902ZM96.2724 19.9902L96.2523 20.0103C96.2724 20.0103 96.2724 20.0103 96.2926 20.0103C96.2724 20.0103 96.2724 19.9902 96.2724 19.9902ZM96.3127 20.1303C96.2926 20.1303 96.2926 20.1303 96.3127 20.1303V20.1503C96.3127 20.1503 96.3127 20.1503 96.3127 20.1303ZM96.4133 20.9708C96.3932 20.9507 96.3932 20.9507 96.4133 20.9708C96.3932 20.9708 96.3932 20.9908 96.3932 20.9908C96.4133 20.9908 96.4133 21.0108 96.4133 21.0108C96.4334 21.0108 96.4334 20.9908 96.4334 20.9708H96.4133ZM96.5944 20.5105L96.5743 20.5906H96.5944V20.5105ZM96.9164 20.3905C96.9164 20.4105 96.9164 20.4105 96.9164 20.3905C96.8963 20.4305 96.9164 20.4505 96.9365 20.4705C96.9365 20.4505 96.9365 20.4505 96.9365 20.4505C96.9567 20.4305 96.9566 20.4105 96.9164 20.3905ZM96.9164 20.5105L96.8963 20.5505C96.8963 20.5505 96.9164 20.5705 96.9365 20.5705C96.9365 20.5505 96.9365 20.5505 96.9566 20.5305L96.9164 20.5105ZM97.0573 20.3905C97.0573 20.4105 97.0573 20.4105 97.0573 20.4305H97.0975C97.0975 20.4305 97.0975 20.4105 97.1176 20.3905H97.0573ZM97.2384 20.3905C97.2183 20.3905 97.2183 20.3905 97.1981 20.3704V20.3905C97.1981 20.4105 97.1981 20.4305 97.2183 20.4305C97.2183 20.4305 97.2384 20.4105 97.2384 20.3905C97.2585 20.4105 97.2384 20.3905 97.2384 20.3905ZM97.2384 20.4905C97.2384 20.5105 97.2384 20.5105 97.2384 20.5105H97.2585H97.2786L97.2384 20.4905ZM97.2786 20.2704L97.2585 20.3104C97.2585 20.3104 97.2585 20.3104 97.2786 20.3104V20.2904C97.2988 20.2904 97.2988 20.2904 97.2988 20.2904C97.3189 20.2904 97.2988 20.2704 97.2786 20.2704ZM97.3189 19.8302C97.3189 19.8102 97.3189 19.8302 97.2988 19.8702C97.3189 19.8702 97.3189 19.8702 97.339 19.8902V19.8502L97.3189 19.8302ZM97.3189 20.0303C97.3189 20.0503 97.3189 20.0503 97.339 20.0503H97.3591L97.3189 20.0303ZM97.339 20.2104C97.3189 20.2104 97.3189 20.1904 97.3189 20.1904C97.3189 20.2104 97.3189 20.2104 97.3189 20.2304C97.339 20.2304 97.339 20.2304 97.3591 20.2304L97.339 20.2104C97.3591 20.2104 97.339 20.2104 97.339 20.2104ZM95.0248 21.2509V21.391V21.3109V21.2509ZM95.7492 19.6901C95.7492 19.7501 95.7693 19.7901 95.8297 19.8102C95.8297 19.7501 95.8096 19.7101 95.7492 19.6901ZM96.2523 19.8902V19.9102H96.2724C96.2523 19.9102 96.2523 19.9102 96.2523 19.8902ZM96.1919 20.2704C96.1919 20.2704 96.1919 20.2904 96.1919 20.3104C96.2322 20.3104 96.2724 20.2904 96.2926 20.2504C96.2724 20.2504 96.2322 20.2704 96.1919 20.2704ZM96.2724 19.9902L96.2523 20.0103C96.2724 20.0103 96.2724 20.0103 96.2926 20.0103C96.2724 20.0103 96.2724 19.9902 96.2724 19.9902ZM96.3127 20.1303C96.2926 20.1303 96.2926 20.1303 96.3127 20.1303V20.1503C96.3127 20.1503 96.3127 20.1503 96.3127 20.1303ZM95.0851 23.312C95.0851 23.332 95.0851 23.332 95.065 23.352L95.0449 23.372L95.0248 23.392V23.412C95.0046 23.432 95.0046 23.432 95.0046 23.452C95.0046 23.472 95.0247 23.472 95.0449 23.492V23.472C95.0449 23.452 95.0449 23.452 95.065 23.432C95.065 23.432 95.0851 23.432 95.0851 23.412L95.1052 23.392H95.1254C95.1455 23.392 95.1656 23.372 95.1656 23.372C95.1254 23.332 95.1052 23.332 95.0851 23.312ZM94.9443 24.0523V23.8322V23.7122V23.6121L94.904 24.9128C94.9241 24.6927 94.9443 24.3925 94.9443 24.0523Z" fill="black"/>
<path d="M98.8282 28.1744C98.8282 28.1544 98.8282 28.1144 98.808 28.0744V27.9743C98.808 27.8943 98.808 27.8343 98.808 27.7742C98.808 27.7142 98.808 27.6542 98.808 27.5741L98.8282 27.254C98.8282 27.1339 98.8483 27.0539 98.8282 26.9738V26.8938V26.8137C98.8282 26.7537 98.8282 26.6937 98.8282 26.6737C98.8282 26.5536 98.8282 26.4536 98.8282 26.3735C98.8282 26.3535 98.8282 26.3135 98.8483 26.2935C98.8483 26.2735 98.8483 26.2735 98.8483 26.2535V26.2134C98.8483 26.1934 98.8483 26.1734 98.8282 26.1734V26.0934C98.8282 25.9733 98.8483 25.7932 98.8483 25.5731V25.453V25.333C98.8483 25.2329 98.8684 25.1529 98.8684 25.0929C98.8885 24.7127 98.8885 24.3925 98.8684 24.1124V24.0924C98.8684 24.0924 98.8684 24.0924 98.8684 24.0723C98.8684 24.0523 98.8885 24.0523 98.8885 24.0523C98.8885 24.0323 98.8684 24.0323 98.8483 24.0323H98.8282C98.8282 23.9923 98.7879 23.9923 98.7477 23.9923H98.7275H98.7074C98.6873 23.9923 98.6672 23.9923 98.6471 23.9923H98.6068C98.3049 23.9723 98.0836 23.9923 97.9427 24.0323V24.1124C97.9427 24.1724 97.9427 24.2324 97.9427 24.3125V24.4525C97.9427 24.5126 97.9427 24.5526 97.9427 24.5926L97.9226 24.7327C97.9025 24.8928 97.8823 25.0128 97.8622 25.0929C97.8622 25.1129 97.8823 25.1329 97.9226 25.1529L97.9427 25.1729L97.9628 25.1929C97.983 25.2129 97.983 25.2129 97.983 25.2329C97.983 25.2529 98.0031 25.2529 98.0031 25.273C97.983 25.273 97.9628 25.2529 97.9226 25.2329C97.9226 25.2129 97.9226 25.2129 97.9226 25.2129V25.2329C97.9226 25.2529 97.9226 25.2529 97.9427 25.273C97.9427 25.293 97.9427 25.293 97.9427 25.293H97.9226C97.8823 25.293 97.8622 25.313 97.8421 25.353L97.822 25.373V25.393C97.822 25.413 97.8018 25.413 97.8018 25.433C97.7817 25.433 97.7817 25.4531 97.7817 25.4731V25.5531C97.7817 25.5931 97.7817 25.6131 97.7616 25.6131C97.7415 25.6331 97.7012 25.6532 97.6811 25.6732L97.6409 25.7132L97.6006 25.7532C97.5402 25.8132 97.4597 25.8533 97.3994 25.8733C97.2988 25.9133 97.1579 25.9333 96.9768 25.9333C96.9365 25.9333 96.8963 25.9333 96.856 25.9333C96.7554 25.9333 96.6749 25.9133 96.6145 25.8733C96.5944 25.8733 96.5944 25.8733 96.5743 25.8533L96.5542 25.8332H96.5341C96.4938 25.8132 96.4737 25.8132 96.4536 25.7932C96.3932 25.7532 96.3529 25.7332 96.3529 25.6932C96.3529 25.6732 96.3529 25.6732 96.3328 25.6732C96.3328 25.6732 96.3328 25.6732 96.3127 25.6732C96.2523 25.5531 96.2121 25.393 96.2322 25.1529L96.2523 24.9328C96.2523 24.8928 96.2523 24.8728 96.2523 24.8527C96.2523 24.7727 96.2523 24.7127 96.2724 24.6326L96.4536 20.7106C96.4938 20.5906 96.5743 20.5105 96.6749 20.4505C96.7554 20.4105 96.856 20.3704 96.9969 20.3704C97.0371 20.3704 97.0975 20.3704 97.1378 20.3704H97.178C97.1981 20.3704 97.2384 20.3704 97.2585 20.3704V20.3504C97.2786 20.3504 97.2988 20.3504 97.2988 20.3704V20.2504C97.3189 20.0703 97.3189 19.8702 97.3189 19.6501C97.3189 19.43 97.3189 19.2098 97.3189 19.0097C97.3189 18.9297 97.3189 18.8096 97.3189 18.7096C97.3189 18.6696 97.3189 18.6296 97.339 18.5695L97.3591 18.4094C97.3792 18.1693 97.3792 17.9692 97.3591 17.8091C97.2988 17.7691 97.2384 17.7691 97.1579 17.7491C97.1378 17.7491 97.0975 17.7491 97.0573 17.7491C97.0371 17.7491 97.017 17.7491 96.9768 17.7691H96.8963C96.8359 17.7691 96.7957 17.7891 96.7554 17.7891H96.7353H96.7152H96.695C96.6749 17.7691 96.6749 17.7691 96.6548 17.7691H96.6347C96.6145 17.7691 96.6145 17.7691 96.5944 17.7891H96.5743C96.5542 17.7891 96.5341 17.7891 96.4938 17.7891H96.4536H96.4334H96.4133C96.2926 17.7891 96.1316 17.7891 95.9303 17.7691C95.87 17.7691 95.7895 17.7691 95.6687 17.7491L95.4071 17.7291C94.9644 17.7091 94.6827 17.7091 94.5217 17.7291C94.5016 17.7291 94.4814 17.7291 94.4613 17.7291H94.4211C94.3808 17.7291 94.3607 17.7291 94.3406 17.7491C94.3003 17.8291 94.2802 17.9292 94.2802 18.0493C94.2802 18.0893 94.2802 18.1493 94.2802 18.2093V18.2894C94.2802 18.3094 94.2802 18.3494 94.2802 18.3694C94.2802 18.5095 94.2601 18.6896 94.2802 18.8697C94.2802 19.0298 94.2802 19.1698 94.2802 19.2899C94.2802 19.3699 94.2802 19.45 94.2802 19.55L94.2601 19.8502C94.2399 20.0303 94.2601 20.1703 94.2802 20.2904L94.7632 20.3104C94.7833 20.3304 94.7833 20.3504 94.8235 20.3704C94.8437 20.3704 94.8437 20.3905 94.8638 20.3905H94.8839H94.904C94.9242 20.4105 94.9443 20.4105 94.9644 20.4305C94.9845 20.4505 94.9845 20.4505 94.9845 20.4905C94.9845 20.5105 94.9845 20.5105 95.0046 20.5105H95.0248C95.0248 20.5105 95.0248 20.5105 95.0449 20.5305C95.1254 20.6306 95.1656 20.7907 95.1656 20.9908C95.1656 21.0508 95.1656 21.1508 95.1656 21.2709V21.3509V21.431V21.511V21.5911L95.1053 23.2319C95.1053 23.2519 95.1053 23.2919 95.1053 23.312V23.5321V23.6721V23.7722V23.8923V24.1124C95.1053 24.4525 95.0851 24.7527 95.065 24.9728C95.0449 25.2529 95.0248 25.433 94.9845 25.5531V25.5931C94.9845 25.6131 94.9845 25.6331 94.9845 25.6331C94.9644 25.6932 94.9443 25.7332 94.8839 25.7732C94.8638 25.8132 94.8235 25.8332 94.7632 25.8533C94.7028 25.8933 94.582 25.9133 94.4412 25.9133H94.4009H94.3607C94.3204 25.9133 94.3003 25.9133 94.2802 25.9133C94.1997 25.9133 94.1393 25.9333 94.079 25.9533C94.079 25.9933 94.079 26.0333 94.079 26.0934V26.1534V26.2335C94.079 26.3535 94.079 26.4536 94.079 26.5336C94.079 26.5536 94.079 26.5536 94.0588 26.5536H94.0387C94.0387 26.5736 94.0387 26.5736 94.0588 26.5736H94.079C94.079 26.6537 94.079 26.7337 94.079 26.8137C94.079 26.8538 94.079 26.8938 94.079 26.9138C94.079 26.9538 94.079 26.9738 94.0588 27.0139C94.0588 27.0139 94.0588 27.0339 94.0387 27.0539H94.0186C94.0186 27.0739 94.0186 27.0939 94.0387 27.1139V27.1339V27.1539V27.1739C94.0588 27.274 94.0588 27.394 94.0387 27.5341C94.0387 27.6142 94.0186 27.6942 94.0186 27.7742L93.9985 27.8543V27.9343C93.9985 27.9944 93.9783 28.0344 93.9783 28.0944C93.9783 28.2145 93.9783 28.2945 93.9783 28.3946C94.0387 28.4146 94.1192 28.4346 94.2198 28.4546H94.3406H94.4211C94.4814 28.4546 94.5418 28.4546 94.5619 28.4546C94.9845 28.4746 95.5077 28.5146 96.1517 28.5346C96.2523 28.5346 96.3932 28.5346 96.5341 28.5546H96.7353H96.9365C97.2585 28.5747 97.5 28.5746 97.7012 28.5947L97.8622 28.6147H98.0232C98.1641 28.6147 98.2647 28.6347 98.3452 28.6347C98.5867 28.6347 98.7678 28.6347 98.9288 28.5747C98.969 28.4946 98.969 28.4146 98.9892 28.3345C98.8282 28.2545 98.8282 28.2145 98.8282 28.1744ZM97.178 20.2504C97.1981 20.2504 97.2183 20.2504 97.2183 20.2304C97.2183 20.2304 97.2183 20.2304 97.2384 20.2304C97.2384 20.2304 97.2384 20.2504 97.2183 20.2704C97.2183 20.2904 97.1981 20.2904 97.1981 20.2904C97.1981 20.3104 97.1981 20.3104 97.178 20.3104C97.178 20.3104 97.1981 20.3104 97.1981 20.2904C97.1981 20.2904 97.178 20.2704 97.178 20.2504ZM96.8762 20.2504H96.856C96.856 20.2504 96.856 20.2504 96.8359 20.2304V20.2104C96.856 20.2104 96.856 20.2104 96.856 20.2104C96.8963 20.2104 96.8762 20.2304 96.8762 20.2504ZM96.9365 19.9302C96.9164 19.9702 96.9164 19.9902 96.8762 19.9902C96.856 19.9902 96.856 19.9902 96.8359 19.9902C96.8762 19.9902 96.8963 19.9702 96.8963 19.9502C96.8963 19.9502 96.8963 19.9302 96.8963 19.9102V19.8502C96.9164 19.8702 96.9365 19.9102 96.9365 19.9302ZM97.0573 20.0703L97.0774 20.0903C97.0774 20.0903 97.0774 20.1103 97.0573 20.1103C97.0573 20.1103 97.0371 20.0903 97.017 20.0903L97.0573 20.0703ZM97.017 19.7901C97.017 19.7901 97.0371 19.7901 97.0573 19.8102L97.0371 19.8502H97.017V19.7901ZM96.9365 19.2899C96.9768 19.2899 96.9969 19.3099 97.017 19.3299C97.017 19.3499 96.9969 19.3499 96.9768 19.3499C96.9566 19.3499 96.9566 19.3499 96.9566 19.3299C96.9365 19.3099 96.9365 19.3099 96.9365 19.3099H96.9164C96.9164 19.3099 96.9164 19.3099 96.9365 19.2899C96.9164 19.2899 96.9365 19.2899 96.9365 19.2899ZM96.8762 19.55L96.9164 19.59L96.8762 19.6101L96.856 19.57L96.8762 19.55ZM96.6749 19.3899C96.6749 19.3899 96.695 19.41 96.7353 19.43C96.7152 19.41 96.695 19.41 96.6749 19.3899ZM96.5542 19.6901L96.5743 19.7101C96.5743 19.7301 96.5743 19.7501 96.5743 19.7501L96.5341 19.7301C96.5341 19.7101 96.5542 19.7101 96.5542 19.6901ZM94.5217 18.4895C94.5016 18.4895 94.4814 18.4895 94.4814 18.4695L94.4613 18.4495L94.4412 18.4294H94.4211C94.4009 18.4094 94.3808 18.4094 94.3808 18.4094C94.4009 18.3894 94.4009 18.3694 94.4412 18.3694C94.4613 18.3694 94.4613 18.3694 94.4814 18.3894L94.5016 18.4094L94.5217 18.4294C94.5418 18.4495 94.5619 18.4495 94.5619 18.4495C94.5619 18.4695 94.5418 18.4895 94.5217 18.4895ZM94.743 18.6896C94.7229 18.6896 94.7229 18.6896 94.7028 18.6696L94.6827 18.6496H94.6625L94.6424 18.6296C94.6223 18.6095 94.6022 18.6095 94.6022 18.6095V18.4495C94.6424 18.4695 94.6827 18.4895 94.7229 18.4895C94.7028 18.4895 94.7028 18.5095 94.6827 18.5295V18.5495V18.5695C94.6827 18.6095 94.7229 18.6095 94.7632 18.6095H94.7833C94.7632 18.6896 94.7632 18.6896 94.743 18.6896ZM95.0851 23.372L95.065 23.392C95.0449 23.392 95.0449 23.412 95.0449 23.412C95.0449 23.432 95.0248 23.432 95.0248 23.452V23.472C95.0046 23.472 94.9845 23.452 94.9845 23.432C94.9845 23.412 94.9845 23.412 95.0046 23.392V23.372L95.0248 23.352L95.0449 23.332C95.065 23.312 95.065 23.312 95.065 23.2919C95.1053 23.312 95.1053 23.312 95.1053 23.332C95.1254 23.352 95.1254 23.372 95.0851 23.372ZM96.3127 20.1303V20.1503V20.1303C96.2926 20.1303 96.2926 20.1303 96.3127 20.1303ZM96.2724 19.9902C96.2724 20.0103 96.2724 20.0103 96.2724 20.0303C96.2523 20.0303 96.2523 20.0303 96.2322 20.0303C96.2523 20.0103 96.2724 19.9902 96.2724 19.9902ZM96.2523 19.8902V19.9102H96.2322C96.2322 19.9102 96.2322 19.9102 96.2523 19.8902ZM95.7492 19.6901C95.8096 19.7101 95.8297 19.7501 95.8297 19.8102C95.7694 19.7701 95.7492 19.7301 95.7492 19.6901ZM96.1919 20.3104C96.1919 20.2904 96.1919 20.2704 96.1919 20.2704C96.2322 20.2504 96.2724 20.2504 96.3127 20.2504C96.2724 20.2904 96.2523 20.3104 96.1919 20.3104ZM96.2926 21.2109C96.2926 21.1909 96.2926 21.2109 96.2926 21.2109V21.2109ZM96.4334 19.9302C96.4133 19.9102 96.3932 19.9102 96.3932 19.8902C96.3932 19.8902 96.3932 19.8902 96.3932 19.8702C96.3932 19.8502 96.3932 19.8502 96.4133 19.8502C96.4133 19.8502 96.4334 19.8502 96.4334 19.8702L96.4133 19.8902C96.4334 19.9102 96.4334 19.9102 96.4334 19.9302Z" fill="black"/>
<path d="M46.7477 33.4571C46.5464 33.3971 46.4458 33.2971 46.4056 33.197C46.3653 33.077 46.3653 32.9769 46.3653 32.8769C46.3653 32.7768 46.3854 32.6367 46.4056 32.4566C46.4458 32.2765 46.5464 32.1965 46.7477 32.1965H49.565C49.726 32.1965 49.8266 32.1165 49.887 31.9564C49.9272 31.7963 49.9675 31.6162 50.0077 31.3961C50.048 31.196 50.0882 30.9759 50.1486 30.7758C50.209 30.5757 50.3498 30.4356 50.531 30.3556C50.5712 29.9954 50.5913 29.4551 50.6115 28.7147C50.6316 27.9743 50.6517 27.1339 50.7121 26.2334C50.7523 25.313 50.7926 24.3325 50.8328 23.3119C50.8731 22.2714 50.9133 21.3109 50.9536 20.3904C50.9938 19.47 51.034 18.6496 51.0542 17.9092C51.0743 17.1688 51.0944 16.6285 51.1347 16.2683V13.5469V10.9456L50.1687 11.806L42.9644 26.5936L42.2802 27.1739L39.3622 33.077L38.8793 32.5967L34.6935 20.9908L34.4118 20.6106L30.3266 9.9651L30.0449 10.5454C30.0046 10.6054 29.9644 11.1057 29.904 12.0262C29.8437 12.9466 29.7833 14.0472 29.7028 15.3078C29.6424 16.5885 29.582 17.8892 29.5015 19.2299C29.4412 20.5705 29.3808 21.6711 29.3607 22.5516V26.4135V30.3756C29.6223 31.0559 30.0248 31.4561 30.5681 31.5762C31.1115 31.6962 31.7755 31.8163 32.5604 31.9164V32.9769C31.031 32.9769 29.4412 32.9369 27.791 32.8368C26.1409 32.7368 24.5913 32.6567 23.1223 32.5967C23.0619 32.5967 22.9814 32.5567 22.8808 32.4566C22.7802 32.3566 22.7399 32.2765 22.7399 32.2165C22.7399 32.0564 22.7802 31.8363 22.8808 31.5562C22.9814 31.276 23.0619 31.136 23.1223 31.136H25.9396C26 31.136 26.1006 31.0759 26.2214 30.9359C26.3421 30.8158 26.483 30.6557 26.6037 30.4556C26.7245 30.2555 26.8452 30.0754 26.9458 29.8753C27.0464 29.6752 27.1269 29.5151 27.1873 29.3951C27.2276 29.1149 27.2678 28.6547 27.308 28.0744C27.3483 27.4741 27.4087 26.8137 27.469 26.0734C27.5294 25.333 27.6099 24.5526 27.6904 23.7522C27.7709 22.9518 27.8313 22.1714 27.8916 21.431C27.9319 20.6906 27.9721 20.0303 28.0124 19.43C28.0526 18.8296 28.0526 18.3894 28.0526 18.1093C28.0526 18.0693 28.0526 17.8692 28.0728 17.489C28.0929 17.1088 28.0929 16.6685 28.0929 16.1683C28.0929 15.668 28.0929 15.1678 28.113 14.6675C28.1331 14.1673 28.1331 13.7671 28.1331 13.4869C28.1331 13.2868 28.1331 12.9666 28.113 12.5264C28.0929 12.0662 28.0929 11.6059 28.0929 11.1057C28.0929 10.6054 28.0929 10.1252 28.0728 9.68496C28.0526 9.22472 28.0526 8.92457 28.0526 8.76449C28.0526 8.70446 27.9721 8.64443 27.8111 8.56439C27.6502 8.50435 27.5294 8.46433 27.469 8.46433C27.3684 8.42431 27.1873 8.4043 26.9056 8.36428C26.6238 8.32426 26.3421 8.30425 26.0604 8.26423C25.7786 8.22421 25.4768 8.2042 25.2152 8.18419C24.9334 8.16418 24.7523 8.16418 24.6517 8.16418V6.90353H25.517C26.0604 6.90353 26.7245 6.92354 27.5093 6.94355C28.2941 6.98358 29.0387 7.00359 29.8034 7.04361C30.6486 7.10364 31.5542 7.16367 32.5201 7.18368L33.1037 7.46382C33.144 7.58388 33.2245 7.804 33.3452 8.08414C33.4659 8.36428 33.6068 8.68445 33.7276 9.02462C33.8483 9.3648 33.969 9.68496 34.0898 9.9651C34.2105 10.2452 34.291 10.4454 34.3514 10.5454C34.3514 10.6054 34.3916 10.6855 34.4923 10.7855C34.5325 10.8456 34.5728 10.9056 34.6331 10.9256L40.6703 26.8738C40.8916 26.7537 41.0929 26.5536 41.2337 26.2935C41.3746 26.0333 41.5155 25.7532 41.6161 25.4731C41.7368 25.1929 41.8576 24.9128 41.9783 24.6726C42.0991 24.4325 42.2802 24.2324 42.5217 24.0723L50.1084 8.70446C50.3096 8.42431 50.5108 8.24422 50.7121 8.2042C50.9133 8.16418 51.1749 8.12416 51.4567 8.12416H52.0402C52.2616 8.12416 52.644 8.12416 53.1873 8.14417C53.7306 8.16418 54.274 8.18419 54.8576 8.22421C55.4412 8.26423 56.0046 8.28424 56.5279 8.32426C57.0712 8.36428 57.4334 8.38429 57.6749 8.42431V9.58491C57.4737 9.58491 57.2121 9.58491 56.87 9.58491C56.5279 9.58491 56.2059 9.62493 55.8638 9.68496C55.5418 9.74499 55.2802 9.88506 55.0588 10.0652C54.8576 10.2653 54.7771 10.5454 54.8375 10.9256C54.7368 12.5464 54.6563 14.0872 54.5758 15.588C54.4954 17.0888 54.4149 18.5695 54.3545 20.0103C54.2941 21.451 54.2337 22.9117 54.2136 24.3925C54.1734 25.8533 54.1734 27.374 54.1734 28.9148V31.9164L54.5557 32.1965L57.3731 32.8769V33.8373C55.5619 33.8373 53.7508 33.8173 51.9799 33.7973C50.2693 33.7573 48.4984 33.6573 46.7477 33.4571Z" fill="black"/>
<path d="M58.7012 14.7075C58.7012 13.4269 58.9025 12.3063 59.3251 11.3658C59.7477 10.4253 60.3313 9.66496 61.0557 9.04464C61.7802 8.42432 62.6455 7.98409 63.6115 7.68394C64.5774 7.4038 65.644 7.24371 66.7709 7.24371C68.9443 7.24371 70.5743 7.68394 71.6811 8.54438C72.7879 9.40482 73.5728 10.5454 74.0356 11.9261C74.4984 13.3068 74.7601 14.8676 74.7802 16.5685C74.8204 18.2694 74.8204 19.9702 74.8204 21.6511C74.8204 23.2919 74.7601 24.8327 74.6594 26.2535C74.5387 27.6742 74.2368 28.8948 73.7337 29.9354C73.2306 30.9759 72.4458 31.7763 71.3793 32.3766C70.3127 32.9769 68.8437 33.2771 66.952 33.2771C66.3081 33.2771 65.6037 33.2371 64.839 33.157C64.0743 33.077 63.3498 32.9169 62.6656 32.6568C61.9814 32.3966 61.3777 32.0364 60.8746 31.5762C60.3514 31.116 60.0093 30.4956 59.8483 29.7152L58.6811 24.7927V14.7075H58.7012ZM66.6904 11.4058C65.8452 11.4058 65.2817 11.706 64.9799 12.3263C64.6981 12.9466 64.5372 13.667 64.5372 14.5074V24.9528C64.5372 25.313 64.5774 25.7332 64.6378 26.2535C64.6981 26.7737 64.8189 27.274 65 27.7542C65.1811 28.2345 65.4226 28.6547 65.7245 28.9949C66.0263 29.335 66.4489 29.4951 66.9721 29.4951C67.3947 29.4951 67.7167 29.3751 67.9381 29.1349C68.1594 28.8948 68.3607 28.5947 68.5015 28.2745C68.6424 27.9543 68.743 27.5741 68.8235 27.194C68.8839 26.8138 68.9443 26.4536 69.0248 26.1334C69.0248 25.9733 69.0248 25.6732 69.0449 25.2129C69.065 24.7527 69.065 24.2725 69.065 23.7722C69.065 23.2519 69.065 22.7717 69.0851 22.2914C69.1053 21.8312 69.1053 21.491 69.1053 21.2909C69.1053 20.9708 69.1053 20.5505 69.0851 20.0303C69.065 19.51 69.065 18.9897 69.065 18.4895C69.065 17.9692 69.065 17.529 69.0449 17.1288C69.0248 16.7486 69.0248 16.5085 69.0248 16.4484C68.9845 16.0282 68.9644 15.528 68.9443 14.9477C68.9241 14.3674 68.8437 13.8071 68.7028 13.2868C68.5619 12.7465 68.3204 12.3063 68.0186 11.9661C67.7167 11.5859 67.274 11.4058 66.6904 11.4058Z" fill="black"/>
<path d="M76.3096 29.8753C76.37 29.7553 76.5108 29.5351 76.692 29.275C76.8932 28.9949 77.0743 28.7147 77.2756 28.4346C77.4768 28.1544 77.6579 27.8743 77.8591 27.6142C78.0604 27.354 78.1811 27.1739 78.2415 27.0739C78.3421 26.9138 78.4427 26.7737 78.5232 26.6537C78.6239 26.5336 78.7446 26.4936 78.9056 26.4936C79.1873 26.4936 79.4691 26.5736 79.7307 26.7537C79.9923 26.9338 80.2338 27.1339 80.4752 27.354C80.7167 27.5741 80.9783 27.7742 81.2601 27.9543C81.5418 28.1344 81.8437 28.2145 82.2059 28.2145H82.9907C83.0511 28.0544 83.1115 27.8743 83.192 27.7142C83.2523 27.5341 83.2926 27.354 83.2926 27.1539C83.2926 26.7937 83.1316 26.4936 82.8096 26.2335C82.4876 25.9733 82.065 25.7132 81.5619 25.4531C81.0588 25.1929 80.5155 24.9128 79.9319 24.6126C79.3483 24.3125 78.805 23.9123 78.3019 23.452C77.7988 22.9918 77.3762 22.4115 77.0542 21.7512C76.7322 21.0908 76.5712 20.2704 76.5712 19.3099C76.5712 18.4094 76.7322 17.609 77.0542 16.9087C77.3762 16.2083 77.8189 15.628 78.3622 15.1478C78.9056 14.6675 79.5697 14.3073 80.3143 14.0672C81.0588 13.8271 81.8437 13.707 82.6889 13.707C83.0511 13.707 83.5743 13.7671 84.2988 13.9071C85.0031 14.0272 85.7276 14.2273 86.4319 14.4874C87.1362 14.7476 87.7601 15.0677 88.3034 15.4279C88.8468 15.8081 89.1084 16.2283 89.1084 16.7086C89.1084 16.8086 89.0681 16.9087 89.0077 17.0487C88.9474 17.1688 88.887 17.2889 88.8065 17.3889C88.6455 17.589 88.4443 17.8291 88.2028 18.1093C87.9613 18.3894 87.7198 18.6696 87.4783 18.9297C87.2369 19.1898 87.0356 19.41 86.8746 19.6101C86.7136 19.8102 86.613 19.8902 86.5929 19.8902H86.3313L83.5139 18.1493H83.2322C82.2663 18.1493 81.7833 18.5695 81.7833 19.41C81.7833 19.8702 81.9443 20.2304 82.2663 20.5305C82.5882 20.8107 82.9907 21.1108 83.4737 21.371C83.9567 21.6511 84.4799 21.9312 85.0232 22.2314C85.5666 22.5316 86.0898 22.8917 86.5728 23.2919C87.0557 23.6922 87.4582 24.1924 87.7802 24.7927C88.1022 25.393 88.2632 26.1134 88.2632 26.9538C88.2632 28.5747 87.8003 29.8953 86.8947 30.9759C85.9892 32.0364 84.6208 32.5767 82.8096 32.5767C82.548 32.5767 82.065 32.5367 81.3607 32.4366C80.6564 32.3366 79.9118 32.1965 79.1672 31.9764C78.4226 31.7763 77.7585 31.4962 77.1749 31.156C76.5913 30.8158 76.3096 30.4156 76.3096 29.9754V29.8753Z" fill="black"/>
<path d="M25.2554 26.5336L25.3158 28.7548L19.9628 28.8948L19.9025 26.6737L21.3111 26.6337L20.3854 22.7517L16.9443 22.8317L16.2399 26.7537L17.3266 26.7337L17.387 28.9549L12.034 29.0949L11.9737 26.8738L13.4427 26.8338L15.9783 12.8666L14.8916 12.9066L14.8313 10.6855L21.935 10.4854L21.9954 12.7265L20.8282 12.7465L24.1084 26.5536L25.2554 26.5336ZM19.8421 20.5505L18.4536 14.6475L17.3669 20.6106L19.8421 20.5505Z" fill="black"/>
<path d="M47.291 7.52386L45.8019 10.0852C45.8622 10.1052 45.9427 10.1052 45.9427 10.1052L45.7214 10.2052L43.387 14.2073L41.3947 18.7296L42.7229 10.7655L37.9737 10.9056C37.9737 10.9056 38.2353 9.00462 38.3963 8.40431C38.5774 7.70395 38.9598 6.12314 39.2012 5.14264C39 4.74243 38.7585 4.82247 38.7183 4.84248C38.7786 4.82247 39.1006 4.66239 39.3421 4.58235C39.3824 4.40226 39.4025 4.30221 39.4025 4.30221L40.3684 0H42.4814C42.4412 0.240123 42.4412 0.420215 42.5619 0.420215C42.6827 0.420215 42.9242 0.240123 43.1858 0H44.4133H47.6331L45.7415 3.74192L43.4876 7.52386H47.291Z" fill="#ED1C24"/>
<path d="M2.5356 23.5521C2.59598 23.2719 2.6161 22.8517 2.55573 22.3515C2.51548 21.8312 2.31424 21.491 1.95201 21.3309L0.583591 14.6675L1.16718 13.607L0.583591 13.8871C0.623839 13.687 0.603715 13.4269 0.563468 13.1067C0.52322 12.7866 0.442724 12.4464 0.362229 12.1062C0.281734 11.766 0.201238 11.4259 0.120743 11.0857C0.0402477 10.7655 0 10.4654 0 10.2052H2.81734C2.93808 10.2052 3.15944 10.6254 3.42105 11.4659C3.70279 12.3063 3.98452 13.2468 4.26625 14.3273C4.54799 15.3879 4.8096 16.3884 5.01084 17.3289C5.21207 18.2694 5.33282 18.8297 5.33282 19.0298C5.33282 19.2899 5.29257 19.45 5.19195 19.49C5.09133 19.53 5.05108 19.6501 5.05108 19.8102C5.05108 19.9302 5.1517 20.0903 5.33282 20.2904L5.05108 20.4905L5.33282 20.7707L5.05108 21.0508H5.53406C5.53406 21.3309 5.5743 21.6311 5.63468 21.8912C5.69505 22.1714 5.75542 22.4315 5.83591 22.6916C5.87616 22.6916 5.89629 22.6916 5.93653 22.7116C5.97678 22.7317 5.9969 22.7317 6.03715 22.7317C6.0774 22.7717 6.09752 22.7717 6.13777 22.7717C6.25851 22.7717 6.37926 22.6916 6.47988 22.5316C6.5805 22.3715 6.66099 22.1714 6.74149 21.9513C6.82198 21.7311 6.88235 21.491 6.94273 21.2709C6.98297 21.0508 7.02322 20.8707 7.02322 20.7306C6.98297 20.6906 6.96285 20.6506 6.9226 20.5906C6.82198 20.4905 6.76161 20.4505 6.72136 20.4505L7.0031 20.2504L9.23684 10.7655H13.1207L12.2554 14.0472L11.9737 14.3273L12.2554 14.6075C12.2152 14.6475 12.0944 14.9877 11.8932 15.628C11.692 16.2683 11.4505 17.0688 11.1889 17.9892C10.9272 18.9297 10.6455 19.9302 10.3638 21.0308C10.082 22.1313 9.80031 23.1519 9.5387 24.0723C9.27709 25.0128 8.99536 26.0934 8.67338 27.354C8.67338 27.4141 8.71362 27.4741 8.77399 27.5541C8.83437 27.6142 8.89474 27.6542 8.97523 27.6542C8.75387 27.7542 8.59288 27.9343 8.51238 28.2145C8.43189 28.4946 8.37152 28.7748 8.31115 29.0549C8.2709 29.335 8.1904 29.5952 8.08978 29.8353C7.98916 30.0554 7.82817 30.1755 7.60681 30.1755H3.98452L2.5356 23.5521Z" fill="black"/>
</svg>
