<svg width="233" height="258" viewBox="0 0 233 258" fill="none" xmlns="http://www.w3.org/2000/svg">
<circle cx="116.5" cy="123.5" r="116.5" fill="#E5E5E5"/>
<path d="M178.284 103.613L157.895 138.84C158.745 139.149 159.789 139.149 159.789 139.149L156.871 140.597L124.982 195.678L97.7508 258L116.053 148.303L51 150.331C51 150.331 54.672 124.201 56.798 115.954C59.2717 106.317 64.6059 84.4743 67.8914 70.8781C65.1857 65.3739 61.8615 66.3782 61.243 66.6292C61.9581 66.2623 66.4032 64.0993 69.7854 62.9791C70.3845 60.5843 70.713 59.1745 70.713 59.1745L83.5265 0.0193128H112.4C111.84 3.30249 111.898 5.79385 113.367 5.79385C115.048 5.79385 118.449 3.20593 122.006 0.0193128H138.897L183 0L157.122 51.5846L126.199 103.613H178.284Z" fill="#C1272D"/>
</svg>
